<svg width="33" height="33" viewBox="0 0 33 33" fill="none" xmlns="http://www.w3.org/2000/svg">
<path d="M22.2544 26.631L18.9255 23.3001C17.6382 23.7603 16.2466 23.8456 14.9127 23.5459C13.5789 23.2461 12.3575 22.5738 11.3908 21.6071C10.4241 20.6404 9.75179 19.4191 9.45209 18.0852C9.15238 16.7513 9.23762 15.3598 9.69788 14.0724L5.44912 9.82369C1.93462 12.9484 0 16.5 0 16.5C0 16.5 6.1875 27.8438 16.5 27.8438C18.4808 27.8369 20.4392 27.4241 22.2544 26.631ZM10.7456 6.369C12.5607 5.57581 14.5192 5.16307 16.5 5.15625C26.8125 5.15625 33 16.5 33 16.5C33 16.5 31.0633 20.0496 27.5529 23.1784L23.3001 18.9255C23.7603 17.6382 23.8456 16.2466 23.5459 14.9127C23.2461 13.5789 22.5738 12.3575 21.6071 11.3908C20.6404 10.4241 19.4191 9.75179 18.0852 9.45209C16.7513 9.15238 15.3598 9.23762 14.0724 9.69788L10.7456 6.369Z" fill="#1E1E1E"/>
<path d="M11.3953 15.7699C11.2819 16.5625 11.3546 17.3707 11.6077 18.1303C11.8608 18.89 12.2874 19.5803 12.8535 20.1465C13.4197 20.7127 14.11 21.1392 14.8697 21.3923C15.6293 21.6454 16.4375 21.7181 17.2301 21.6047L11.3953 15.7699ZM21.6047 17.2301L15.7699 11.3932C16.5625 11.2798 17.3707 11.3525 18.1304 11.6056C18.89 11.8587 19.5803 12.2853 20.1465 12.8515C20.7127 13.4176 21.1392 14.1079 21.3923 14.8676C21.6455 15.6272 21.7182 16.4354 21.6047 17.2281V17.2301ZM28.1449 29.6051L3.3949 4.85512L4.85515 3.39487L29.6051 28.1449L28.1449 29.6051Z" fill="#1E1E1E"/>
</svg>
